<svg width="18.509277" height="18.333374" viewBox="0 0 18.5093 18.3334" fill="none" xmlns="http://www.w3.org/2000/svg" xmlns:xlink="http://www.w3.org/1999/xlink">
	<desc>
			Created with Pixso.
	</desc>
	<defs/>
	<path id="Vector" d="M16.5 4.3606L14.6665 6.19397L14.6665 1.83337L6.4165 1.83337L6.4165 6.41663L1.8335 6.41663L1.8335 16.5L14.6665 16.5L14.6665 13.9728L16.5 12.1394L16.5 17.424C16.5 17.6653 16.4038 17.8965 16.2329 18.067C16.0625 18.2375 15.8311 18.3334 15.5898 18.3334L0.910156 18.3334C0.790039 18.3325 0.670898 18.308 0.560059 18.2611C0.449219 18.2142 0.348633 18.146 0.26416 18.0603C0.179199 17.9746 0.112793 17.873 0.0673828 17.7615C0.0219727 17.65 -0.000976562 17.5306 0 17.4103L0 5.5L5.50293 0L15.5815 0C16.0874 0 16.5 0.417114 16.5 0.909302L16.5 4.3606ZM17.2134 6.23975L18.5093 7.53687L11.3794 14.6666L10.0815 14.6648L10.0835 13.3705L17.2134 6.24072L17.2134 6.23975Z" fill="#000000" fill-opacity="1.000000" fill-rule="nonzero"/>
</svg>
