<svg width="18.509369" height="18.333374" viewBox="0 0 18.5094 18.3334" fill="none" xmlns="http://www.w3.org/2000/svg" xmlns:xlink="http://www.w3.org/1999/xlink">
	<defs/>
	<path id="Vector" d="M16.5 4.3606L14.6667 6.19397L14.6667 1.83337L6.41669 1.83337L6.41669 6.41663L1.83334 6.41663L1.83334 16.5L14.6667 16.5L14.6667 13.9728L16.5 12.1394L16.5 17.424C16.4998 17.6653 16.4038 17.8965 16.2331 18.067C16.0624 18.2375 15.831 18.3334 15.5898 18.3334L0.910278 18.3334C0.789886 18.3325 0.670868 18.308 0.559967 18.2611C0.449066 18.2142 0.34848 18.146 0.263977 18.0603C0.179443 17.9746 0.11264 17.873 0.0673523 17.7615C0.0220642 17.65 -0.000823975 17.5306 3.05176e-05 17.4103L3.05176e-05 5.5L5.50278 0L15.5815 0C16.0875 0 16.5 0.417114 16.5 0.909302L16.5 4.3606ZM17.2132 6.23975L18.5094 7.53687L11.3795 14.6666L10.0815 14.6648L10.0833 13.3705L17.2132 6.24072L17.2132 6.23975Z" fill="#000000" fill-opacity="1.000000" fill-rule="nonzero"/>
</svg>
