<svg width="19.500000" height="17.333374" viewBox="0 0 19.5 17.3334" fill="none" xmlns="http://www.w3.org/2000/svg" xmlns:xlink="http://www.w3.org/1999/xlink">
	<desc>
			Created with Pixso.
	</desc>
	<defs/>
	<path id="Vector" d="M18.4167 0L1.08331 0C0.485046 0 0 0.484985 0 1.08337C0 1.68164 0.485046 2.16663 1.08331 2.16663L18.4167 2.16663C19.015 2.16663 19.5 1.68164 19.5 1.08337C19.5 0.484985 19.015 0 18.4167 0ZM18.4167 7.58337L7.58331 7.58337C6.98505 7.58337 6.5 8.06836 6.5 8.66663C6.5 9.26501 6.98505 9.75 7.58331 9.75L18.4167 9.75C19.015 9.75 19.5 9.26501 19.5 8.66663C19.5 8.06836 19.015 7.58337 18.4167 7.58337ZM18.4167 15.1666L1.08331 15.1666C0.485046 15.1666 0 15.6517 0 16.25C0 16.8483 0.485046 17.3334 1.08331 17.3334L18.4167 17.3334C19.015 17.3334 19.5 16.8483 19.5 16.25C19.5 15.6517 19.015 15.1666 18.4167 15.1666Z" fill="#FFFFFF" fill-opacity="1.000000" fill-rule="nonzero"/>
</svg>
