<svg width="22.000000" height="22.000000" viewBox="0 0 22 22" fill="none" xmlns="http://www.w3.org/2000/svg" xmlns:xlink="http://www.w3.org/1999/xlink">
	<desc>
			Created with Pixso.
	</desc>
	<defs>
		<clipPath id="clip2_118">
			<rect id="Frame" width="22.000000" height="22.000000" fill="white" fill-opacity="0"/>
		</clipPath>
	</defs>
	<rect id="Frame" width="22.000000" height="22.000000" fill="#FFFFFF" fill-opacity="0"/>
	<g clip-path="url(#clip2_118)">
		<path id="Vector" d="M11.0005 10.082L11.0005 7.33203L14.6675 10.9987L11.0005 14.6654L11.0005 11.9154L7.33398 11.9154L7.33398 10.082L11.0005 10.082ZM11.0005 1.83203C16.0605 1.83203 20.1675 5.93872 20.1675 10.9987C20.1675 16.0587 16.0605 20.1654 11.0005 20.1654C5.94043 20.1654 1.83398 16.0587 1.83398 10.9987C1.83398 5.93872 5.94043 1.83203 11.0005 1.83203ZM11.0005 18.332C15.0522 18.332 18.334 15.0504 18.334 10.9987C18.334 6.94702 15.0522 3.66541 11.0005 3.66541C6.94922 3.66541 3.66748 6.94702 3.66748 10.9987C3.66748 15.0504 6.94922 18.332 11.0005 18.332Z" fill="#FFFFFF" fill-opacity="1.000000" fill-rule="nonzero"/>
	</g>
</svg>
